<?xml version="1.0" encoding="UTF-8"?>
<svg version="1.1" xmlns="http://www.w3.org/2000/svg" width="512" height="512">
<path d="M0 0 C1.51774716 -0.00418201 3.03549118 -0.00966424 4.55322951 -0.01631981 C8.68881069 -0.03067967 12.82419098 -0.02655957 16.95978272 -0.019153 C21.43367667 -0.01439999 25.90752849 -0.02694999 30.38140869 -0.03717041 C39.13275477 -0.05432247 47.88402894 -0.05520585 56.63538746 -0.04995751 C63.75260586 -0.04590765 70.86980309 -0.04736904 77.98702049 -0.05270576 C79.00197249 -0.05345419 80.01692449 -0.05420261 81.06263262 -0.05497371 C83.12485698 -0.05650527 85.18708134 -0.05804362 87.24930569 -0.05958868 C106.56688979 -0.07330087 125.88443333 -0.06788517 145.2020165 -0.05640347 C162.85050508 -0.04647378 180.49888879 -0.05940948 198.1473612 -0.08333766 C216.29586007 -0.10775721 234.44431015 -0.11732943 252.59282511 -0.11068493 C262.77098846 -0.10719889 272.94907119 -0.10938404 283.12722206 -0.12693596 C291.79212366 -0.14169374 300.45688787 -0.14224684 309.12178687 -0.12486505 C313.53700137 -0.11638181 317.95197084 -0.11413952 322.36717224 -0.1295166 C326.41945967 -0.14345424 330.47129424 -0.13848556 334.52355608 -0.11927737 C335.97902673 -0.11554461 337.43453447 -0.11835942 338.88997183 -0.12888902 C352.03093974 -0.21709822 365.19117489 1.80551189 376.88615417 8.13768005 C377.54510681 8.48274597 378.20405945 8.82781189 378.88298035 9.18333435 C399.04360049 20.0069214 414.63686273 37.39301443 421.57365417 59.38768005 C424.31356033 68.92969348 425.00618639 77.92925564 424.96133423 87.81402588 C424.96551624 89.33177304 424.97099847 90.84951706 424.97765404 92.36725539 C424.9920139 96.50283657 424.9878938 100.63821686 424.98048723 104.7738086 C424.97573421 109.24770255 424.98828422 113.72155437 424.99850464 118.19543457 C425.01565669 126.94678065 425.01654008 135.69805482 425.01129173 144.44941334 C425.00724188 151.56663174 425.00870327 158.68382897 425.01403999 165.80104637 C425.01478842 166.81599837 425.01553684 167.83095037 425.01630794 168.8766585 C425.0178395 170.93888286 425.01937785 173.00110721 425.02092291 175.06333157 C425.0346351 194.38091567 425.0292194 213.69845921 425.01773769 233.01604237 C425.00780801 250.66453096 425.02074371 268.31291466 425.04467189 285.96138708 C425.06909144 304.10988595 425.07866366 322.25833603 425.07201916 340.40685099 C425.06853311 350.58501434 425.07071827 360.76309707 425.08827019 370.94124794 C425.10302797 379.60614953 425.10358107 388.27091375 425.08619928 396.93581275 C425.07771604 401.35102725 425.07547375 405.76599671 425.09085083 410.18119812 C425.10478847 414.23348555 425.09981979 418.28532012 425.08061159 422.33758195 C425.07687884 423.79305261 425.07969365 425.24856035 425.09022325 426.70399771 C425.17843245 439.84496562 423.15582234 453.00520077 416.82365417 464.70018005 C416.47858826 465.35913269 416.13352234 466.01808533 415.77799988 466.69700623 C404.95441283 486.85762637 387.5683198 502.45088861 365.57365417 509.38768005 C356.03164075 512.12758621 347.03207859 512.82021227 337.14730835 512.77536011 C335.62956119 512.77954211 334.11181717 512.78502435 332.59407884 512.79167992 C328.45849766 512.80603978 324.32311737 512.80191968 320.18752563 512.79451311 C315.71363168 512.78976009 311.23977986 512.8023101 306.76589966 512.81253052 C298.01455358 512.82968257 289.26327941 512.83056596 280.51192089 512.82531761 C273.39470249 512.82126776 266.27750526 512.82272915 259.16028786 512.82806587 C257.63785986 512.82918851 257.63785986 512.82918851 256.08467573 512.83033382 C254.02245137 512.83186538 251.96022701 512.83340373 249.89800266 512.83494879 C230.58041856 512.84866098 211.26287502 512.84324528 191.94529185 512.83176357 C174.29680327 512.82183389 156.64841956 512.83476959 138.99994715 512.85869776 C120.85144828 512.88311731 102.7029982 512.89268953 84.55448323 512.88604504 C74.37631989 512.88255899 64.19823716 512.88474415 54.02008629 512.90229607 C45.35518469 512.91705385 36.69042048 512.91760695 28.02552148 512.90022516 C23.61030698 512.89174192 19.19533751 512.88949963 14.78013611 512.90487671 C10.72784867 512.91881435 6.67601411 512.91384567 2.62375227 512.89463747 C1.16828162 512.89090472 -0.28722612 512.89371953 -1.74266348 512.90424912 C-14.88363139 512.99245833 -28.04386654 510.96984822 -39.73884583 504.63768005 C-40.39779846 504.29261414 -41.0567511 503.94754822 -41.735672 503.59202576 C-61.89629214 492.76843871 -77.48955438 475.38234568 -84.42634583 453.38768005 C-87.16625198 443.84566663 -87.85887805 434.84610447 -87.81402588 424.96133423 C-87.81820789 423.44358707 -87.82369012 421.92584304 -87.83034569 420.40810472 C-87.84470555 416.27252354 -87.84058545 412.13714324 -87.83317888 408.00155151 C-87.82842587 403.52765755 -87.84097587 399.05380574 -87.85119629 394.57992554 C-87.86834834 385.82857946 -87.86923173 377.07730529 -87.86398339 368.32594677 C-87.85993353 361.20872837 -87.86139492 354.09153114 -87.86673164 346.97431374 C-87.86748007 345.95936174 -87.86822849 344.94440973 -87.86899959 343.89870161 C-87.87053115 341.83647725 -87.8720695 339.77425289 -87.87361456 337.71202854 C-87.88732675 318.39444444 -87.88191105 299.0769009 -87.87042934 279.75931773 C-87.86049966 262.11082915 -87.87343536 244.46244544 -87.89736354 226.81397303 C-87.92178309 208.66547416 -87.93135531 190.51702408 -87.92471081 172.36850911 C-87.92122476 162.19034577 -87.92340992 152.01226304 -87.94096184 141.83411217 C-87.95571962 133.16921057 -87.95627272 124.50444636 -87.93889093 115.83954736 C-87.93040769 111.42433285 -87.9281654 107.00936339 -87.94354248 102.59416199 C-87.95748012 98.54187455 -87.95251144 94.49003999 -87.93330324 90.43777815 C-87.92957049 88.98230749 -87.9323853 87.52679975 -87.9429149 86.0713624 C-88.0311241 72.93039449 -86.00851399 59.77015934 -79.67634583 48.07518005 C-79.33127991 47.41622742 -78.98621399 46.75727478 -78.63069153 46.07835388 C-67.80710448 25.91773373 -50.42101145 10.3244715 -28.42634583 3.38768005 C-18.8843324 0.64777389 -9.88477024 -0.04485217 0 0 Z M121.6068573 124.24095154 C120.96195343 124.88570938 120.31704956 125.53046722 119.65260315 126.19476318 C117.55098704 128.29706823 115.45292148 130.40287783 113.35490417 132.5087738 C111.88682117 133.97872461 110.4185152 135.44845277 108.94999695 136.91796875 C105.10752281 140.76423951 101.26806278 144.61350511 97.429245 148.46342468 C93.50265206 152.40029346 89.57318512 156.33429137 85.64396667 160.26853943 C77.95106374 167.97212927 70.2613453 175.6788894 62.57365417 183.38768005 C61.4637954 182.44581609 60.35529032 181.50235685 59.24734497 180.5582428 C58.62989882 180.03302851 58.01245268 179.50781422 57.37629604 178.96668434 C54.8320147 176.73804913 52.48952789 174.34291254 50.14006042 171.91111755 C49.1515779 170.90026088 48.16263154 169.8898576 47.17326355 168.87986755 C45.65042468 167.31997008 44.13094575 165.75726792 42.61930847 164.18650818 C33.64161518 154.64239303 33.64161518 154.64239303 21.66740417 149.85643005 C15.52387757 149.93044845 10.50895899 150.49762539 5.57365417 154.38768005 C0.94862058 159.40654839 -1.55349608 163.65870784 -1.73884583 170.57518005 C-1.79492004 171.92676208 -1.79492004 171.92676208 -1.85212708 173.3056488 C-0.5456383 182.76270978 6.28089869 188.68725474 12.74552917 195.09080505 C13.75256204 196.10053841 14.75900099 197.1108644 15.76487732 198.12174988 C17.86658006 200.22932143 19.9752724 202.32956188 22.08927917 204.42478943 C24.78372864 207.09645113 27.45981535 209.78567503 30.13088608 212.48068619 C32.2032771 214.56760622 34.28519414 216.64481382 36.37001801 218.71930695 C37.36001016 219.7066514 38.34709704 220.69691865 39.33106232 221.69026947 C47.98799684 230.45471834 47.98799684 230.45471834 59.26115417 234.91893005 C60.40584167 234.9034613 60.40584167 234.9034613 61.57365417 234.88768005 C62.33677917 234.89799255 63.09990417 234.90830505 63.88615417 234.91893005 C72.43697253 233.22865201 77.86449807 227.6820558 83.7877655 221.72288513 C84.67168976 220.84918274 85.55561401 219.97548035 86.46632385 219.07530212 C88.87250532 216.6920552 91.26938271 214.30019951 93.66155839 211.90294099 C95.66589157 209.89645789 97.67617007 207.89598292 99.68635005 205.89536017 C104.43075167 201.17309095 109.16448997 196.44031718 113.89176941 191.70091248 C118.75619648 186.8244002 123.63870479 181.96654652 128.53041059 177.11741143 C132.74274184 172.94038571 136.9432877 168.75175781 141.13475245 164.55379409 C143.63258919 162.05234404 146.13459413 159.55547446 148.64815712 157.0698185 C151.45137763 154.29656784 154.22984053 151.49928792 157.0065155 148.69944763 C157.83407852 147.88717209 158.66164154 147.07489655 159.51428223 146.23800659 C164.84406336 140.80961757 168.31303368 135.78988731 168.68813801 128.01463032 C168.53541737 121.76597239 165.68633593 116.95834419 161.57365417 112.38768005 C145.39692543 99.97298125 132.97470117 112.80364562 121.6068573 124.24095154 Z M193.72599792 180.67674255 C190.163046 185.96682032 189.81966207 191.1362265 190.57365417 197.38768005 C192.3697323 203.48574171 196.19338051 208.04893315 201.57365417 211.38768005 C207.19586227 213.83083209 212.55921938 213.68350133 218.576828 213.6782074 C219.67515457 213.68492462 220.77348114 213.69164185 221.90509033 213.69856262 C225.53033492 213.71753601 229.1553943 213.72146655 232.78068542 213.72361755 C235.30645829 213.73004599 237.83223041 213.73677439 240.35800171 213.74378967 C245.65134202 213.75576085 250.9446136 213.75955645 256.23796082 213.75828552 C262.33877477 213.75708506 268.43923442 213.77817361 274.53995878 213.80977285 C280.42821069 213.83917457 286.31632345 213.84625897 292.20464134 213.84506607 C294.70082228 213.8474216 297.19700603 213.85624236 299.69314003 213.8717308 C303.18982192 213.89139588 306.68559931 213.88554969 310.18229675 213.8735199 C311.20649719 213.88475891 312.23069763 213.89599792 313.28593445 213.90757751 C320.49778065 213.84474742 326.99845171 212.69440292 332.45444965 207.64812279 C337.46871752 202.17891551 339.06892711 197.33657319 338.88224792 189.9462738 C338.07238757 183.23160886 334.58354717 178.88422435 329.55021667 174.61424255 C323.53851137 170.88365863 317.405769 171.09113944 310.57048035 171.09715271 C309.47215378 171.09043549 308.37382721 171.08371826 307.24221802 171.07679749 C303.61697343 171.0578241 299.99191405 171.05389356 296.36662292 171.05174255 C293.84085006 171.04531412 291.31507794 171.03858572 288.78930664 171.03157043 C283.49596633 171.01959925 278.20269475 171.01580365 272.90934753 171.01707458 C266.80853358 171.01827505 260.70807393 170.9971865 254.60734957 170.96558726 C248.71909766 170.93618554 242.8309849 170.92910114 236.94266701 170.93029404 C234.44648607 170.92793851 231.95030232 170.91911775 229.45416832 170.9036293 C225.95748643 170.88396422 222.46170904 170.88981042 218.9650116 170.90184021 C217.94081116 170.8906012 216.91661072 170.87936218 215.8613739 170.86778259 C206.66127524 170.94793448 199.44124011 173.17251874 193.72599792 180.67674255 Z M127.21134949 289.37522888 C126.52410294 290.06992279 125.83685638 290.7646167 125.12878418 291.48036194 C123.64843041 292.97918794 122.17268975 294.48258168 120.70116425 295.99007607 C118.37375302 298.37341088 116.03345016 300.7433784 113.6893158 303.11026001 C107.87637836 308.98450335 102.08375607 314.87862321 96.29490662 320.77659607 C91.39001523 325.77339265 86.475569 330.76035915 81.54657745 335.7333889 C79.23658481 338.07212809 76.94166673 340.42501861 74.64671326 342.77850342 C73.23804056 344.20213403 71.82863641 345.62504136 70.41838074 347.04710388 C69.78142776 347.70831741 69.14447479 348.36953094 68.48822021 349.05078125 C67.8968779 349.64103088 67.30553558 350.23128052 66.6962738 350.8394165 C65.93202276 351.6183739 65.93202276 351.6183739 65.15233231 352.41306782 C63.57365417 353.38768005 63.57365417 353.38768005 61.56057358 353.21171093 C58.12476943 351.78678715 55.82843327 348.91897637 53.30412292 346.27049255 C52.0731115 345.01127202 50.84198816 343.75216089 49.61076355 342.4931488 C47.68552493 340.5058848 45.76375424 338.51538116 43.84489441 336.5219574 C41.9858054 334.59615639 40.1143833 332.6829876 38.24162292 330.77049255 C37.67783432 330.17664764 37.11404572 329.58280273 36.53317261 328.97096252 C31.5434065 323.89013441 26.47558778 320.97492444 19.13615417 320.88768005 C12.65392347 321.08330293 8.61520877 323.42371614 4.04240417 327.87986755 C-0.46767169 332.94059222 -1.62046848 337.25224159 -1.88728333 343.8134613 C-0.21532396 353.15092931 6.75960944 359.17896064 13.18302917 365.5634613 C14.23482876 366.62050544 15.28610969 367.67806587 16.3368988 368.7361145 C18.53260274 370.94218066 20.73555605 373.14067329 22.94377136 375.33421326 C25.76108123 378.13431958 28.55750203 380.95429353 31.34858322 383.78051472 C33.51199191 385.96596595 35.687064 388.13951177 37.86565399 390.30982018 C38.90120136 391.34455222 39.93295904 392.38309247 40.96067047 393.42560768 C47.46894579 400.01320936 52.52200145 404.61746971 62.01115417 405.82518005 C71.45908658 404.66490765 77.3295227 399.35709218 83.80949402 392.78294373 C84.68381073 391.91578232 85.55812744 391.04862091 86.4589386 390.15518188 C88.83581602 387.79224096 91.20103337 385.41874401 93.56102324 383.03900695 C96.04215952 380.54138714 98.53598244 378.05648721 101.02790833 375.56964111 C105.20744191 371.39461644 109.3767156 367.20955665 113.53996277 363.01829529 C118.34410251 358.18207766 123.1641079 353.36213018 127.99291837 348.55055445 C132.65227062 343.90709631 137.30021255 339.25237528 141.94308853 334.59244728 C143.91303702 332.61565066 145.88684355 330.64283104 147.8639183 328.67316246 C150.62569518 325.92050865 153.37067543 323.1514698 156.11418152 320.38059998 C157.33914337 319.16542694 157.33914337 319.16542694 158.58885193 317.92570496 C164.19736174 312.22183697 167.97463826 307.27989412 168.07365417 298.95018005 C167.8780313 292.46794935 165.53761809 288.42923465 161.08146667 283.85643005 C156.02074201 279.34635418 151.70909264 278.1935574 145.14787292 277.92674255 C137.58570959 279.28081732 132.38360202 284.02008568 127.21134949 289.37522888 Z M193.76115417 351.67674255 C190.12051803 356.92213279 189.8307229 362.14896231 190.57365417 368.38768005 C192.1890382 374.18465944 195.45592806 377.60586084 200.18302917 381.16111755 C206.90265048 384.6087664 213.85886437 384.68127253 221.23722839 384.66233826 C222.79496475 384.67000465 222.79496475 384.67000465 224.38417053 384.67782593 C227.79895374 384.69166538 231.21353384 384.69076936 234.62834167 384.6884613 C237.01433893 384.69235137 239.4003355 384.69668668 241.78633118 384.70144653 C246.78105415 384.70889665 251.77570643 384.70862623 256.77043152 384.70335388 C263.15456159 384.6975614 269.53840134 384.7144911 275.92248344 384.73769855 C280.84858375 384.75246749 285.77461466 384.75330327 290.70073318 384.75018883 C293.05373332 384.75070046 295.40673749 384.75590842 297.75971603 384.76600075 C301.05709672 384.77840872 304.3539184 384.77154696 307.65129089 384.75999451 C308.61264954 384.76763824 309.57400818 384.77528198 310.5644989 384.78315735 C318.10091747 384.72512465 325.90328905 383.79743614 332.01115417 379.01268005 C336.69978733 374.20969 338.65895908 369.78612611 338.88615417 363.13768005 C338.78990094 357.27585827 336.93121684 352.90725532 332.92521667 348.6259613 C328.27633092 344.4338438 324.00252238 342.145699 317.62240601 342.12025452 C316.65105209 342.11172455 315.67969818 342.10319458 314.6789093 342.09440613 C313.09769791 342.09576569 313.09769791 342.09576569 311.48454285 342.09715271 C310.36524887 342.09043549 309.2459549 342.08371826 308.09274292 342.07679749 C304.39232443 342.0577989 300.69208715 342.05389225 296.99162292 342.05174255 C294.41718471 342.04531574 291.84274722 342.03858747 289.26831055 342.03157043 C283.87064104 342.01959286 278.47304332 342.0158044 273.07536316 342.01707458 C266.85015299 342.01827513 260.62529001 341.99718739 254.40016764 341.96558726 C248.39710721 341.9362079 242.39423419 341.92910054 236.3910923 341.93029404 C233.84384557 341.92793632 231.29659619 341.91910323 228.74939537 341.9036293 C225.18295525 341.88399311 221.61740411 341.8897992 218.0509491 341.90184021 C217.00288086 341.8906012 215.95481262 341.87936218 214.87498474 341.86778259 C205.81603043 341.94534365 199.43779388 344.3649838 193.76115417 351.67674255 Z " fill="#2096F3" transform="translate(87.42634582519531,-0.3876800537109375)"/>
</svg>
